<?xml version="1.0" encoding="UTF-8" standalone="no"?>
<!DOCTYPE svg PUBLIC "-//W3C//DTD SVG 1.1//EN"
 "http://www.w3.org/Graphics/SVG/1.1/DTD/svg11.dtd">
<!-- Generated by graphviz version 5.0.0 (20220707.1540)
 -->
<!-- Title: dependencies Pages: 1 -->
<svg width="4217pt" height="247pt"
 viewBox="0.00 0.00 4217.00 246.80" xmlns="http://www.w3.org/2000/svg" xmlns:xlink="http://www.w3.org/1999/xlink">
<g id="graph0" class="graph" transform="scale(1 1) rotate(0) translate(4 242.8)">
<title>dependencies</title>
<polygon fill="white" stroke="transparent" points="-4,4 -4,-242.8 4213,-242.8 4213,4 -4,4"/>
<text text-anchor="middle" x="2104.5" y="-8.2" font-family="sans-serif" font-size="14.00">dependencies</text>
<g id="clust1" class="cluster">
<title>cluster_AppModule</title>
<polygon fill="none" stroke="black" stroke-dasharray="1,5" points="8,-32.8 8,-230.8 4201,-230.8 4201,-32.8 8,-32.8"/>
</g>
<g id="clust29" class="cluster">
<title>cluster_AppModule_providers</title>
<polygon fill="none" stroke="black" points="3877,-40.8 3877,-92.8 4193,-92.8 4193,-40.8 3877,-40.8"/>
</g>
<g id="clust26" class="cluster">
<title>cluster_AppModule_imports</title>
<polygon fill="none" stroke="black" points="3725,-40.8 3725,-92.8 3869,-92.8 3869,-40.8 3725,-40.8"/>
</g>
<g id="clust28" class="cluster">
<title>cluster_AppModule_bootstrap</title>
<polygon fill="none" stroke="black" points="2062,-170.8 2062,-222.8 2186,-222.8 2186,-170.8 2062,-170.8"/>
</g>
<g id="clust2" class="cluster">
<title>cluster_AppModule_declarations</title>
<polygon fill="none" stroke="black" points="16,-40.8 16,-92.8 3717,-92.8 3717,-40.8 16,-40.8"/>
</g>
<!-- AlertComponent -->
<g id="node1" class="node">
<title>AlertComponent</title>
<polygon fill="#ffffb3" stroke="black" points="3709.1,-84.8 3598.9,-84.8 3598.9,-48.8 3709.1,-48.8 3709.1,-84.8"/>
<text text-anchor="middle" x="3654" y="-62.6" font-family="Times,serif" font-size="14.00">AlertComponent</text>
</g>
<!-- AppModule -->
<g id="node24" class="node">
<title>AppModule</title>
<polygon fill="#8dd3c7" stroke="black" points="2165.66,-149.8 2162.66,-153.8 2141.66,-153.8 2138.66,-149.8 2082.34,-149.8 2082.34,-113.8 2165.66,-113.8 2165.66,-149.8"/>
<text text-anchor="middle" x="2124" y="-127.6" font-family="Times,serif" font-size="14.00">AppModule</text>
</g>
<!-- AlertComponent&#45;&gt;AppModule -->
<g id="edge1" class="edge">
<title>AlertComponent&#45;&gt;AppModule</title>
<path fill="none" stroke="black" d="M3654,-84.97C3654,-106.3 3654,-138.8 3654,-138.8 3654,-138.8 2175.72,-138.8 2175.72,-138.8"/>
<polygon fill="black" stroke="black" points="2175.72,-135.3 2165.72,-138.8 2175.72,-142.3 2175.72,-135.3"/>
</g>
<!-- AppComponent -->
<g id="node2" class="node">
<title>AppComponent</title>
<polygon fill="#ffffb3" stroke="black" points="3580.94,-84.8 3475.06,-84.8 3475.06,-48.8 3580.94,-48.8 3580.94,-84.8"/>
<text text-anchor="middle" x="3528" y="-62.6" font-family="Times,serif" font-size="14.00">AppComponent</text>
</g>
<!-- AppComponent&#45;&gt;AppModule -->
<g id="edge2" class="edge">
<title>AppComponent&#45;&gt;AppModule</title>
<path fill="none" stroke="black" d="M3528,-84.83C3528,-105.57 3528,-136.8 3528,-136.8 3528,-136.8 2176.02,-136.8 2176.02,-136.8"/>
<polygon fill="black" stroke="black" points="2176.02,-133.3 2166.02,-136.8 2176.02,-140.3 2176.02,-133.3"/>
</g>
<!-- BlockCopyPasteDirective -->
<g id="node3" class="node">
<title>BlockCopyPasteDirective</title>
<polygon fill="#ffffb3" stroke="black" points="3457.91,-84.8 3296.09,-84.8 3296.09,-48.8 3457.91,-48.8 3457.91,-84.8"/>
<text text-anchor="middle" x="3377" y="-62.6" font-family="Times,serif" font-size="14.00">BlockCopyPasteDirective</text>
</g>
<!-- BlockCopyPasteDirective&#45;&gt;AppModule -->
<g id="edge3" class="edge">
<title>BlockCopyPasteDirective&#45;&gt;AppModule</title>
<path fill="none" stroke="black" d="M3377,-85.11C3377,-104.95 3377,-133.8 3377,-133.8 3377,-133.8 2175.69,-133.8 2175.69,-133.8"/>
<polygon fill="black" stroke="black" points="2175.69,-130.3 2165.69,-133.8 2175.69,-137.3 2175.69,-130.3"/>
</g>
<!-- CarouselComponent -->
<g id="node4" class="node">
<title>CarouselComponent</title>
<polygon fill="#ffffb3" stroke="black" points="3278.6,-84.8 3147.4,-84.8 3147.4,-48.8 3278.6,-48.8 3278.6,-84.8"/>
<text text-anchor="middle" x="3213" y="-62.6" font-family="Times,serif" font-size="14.00">CarouselComponent</text>
</g>
<!-- CarouselComponent&#45;&gt;AppModule -->
<g id="edge4" class="edge">
<title>CarouselComponent&#45;&gt;AppModule</title>
<path fill="none" stroke="black" d="M3213,-84.97C3213,-103.89 3213,-130.8 3213,-130.8 3213,-130.8 2175.69,-130.8 2175.69,-130.8"/>
<polygon fill="black" stroke="black" points="2175.69,-127.3 2165.69,-130.8 2175.69,-134.3 2175.69,-127.3"/>
</g>
<!-- ClientescrearComponent -->
<g id="node5" class="node">
<title>ClientescrearComponent</title>
<polygon fill="#ffffb3" stroke="black" points="3129.68,-84.8 2974.32,-84.8 2974.32,-48.8 3129.68,-48.8 3129.68,-84.8"/>
<text text-anchor="middle" x="3052" y="-62.6" font-family="Times,serif" font-size="14.00">ClientescrearComponent</text>
</g>
<!-- ClientescrearComponent&#45;&gt;AppModule -->
<g id="edge5" class="edge">
<title>ClientescrearComponent&#45;&gt;AppModule</title>
<path fill="none" stroke="black" d="M3052,-85.1C3052,-103.07 3052,-127.8 3052,-127.8 3052,-127.8 2175.68,-127.8 2175.68,-127.8"/>
<polygon fill="black" stroke="black" points="2175.68,-124.3 2165.68,-127.8 2175.68,-131.3 2175.68,-124.3"/>
</g>
<!-- CompraBoletosComponent -->
<g id="node6" class="node">
<title>CompraBoletosComponent</title>
<polygon fill="#ffffb3" stroke="black" points="2956.71,-84.8 2787.29,-84.8 2787.29,-48.8 2956.71,-48.8 2956.71,-84.8"/>
<text text-anchor="middle" x="2872" y="-62.6" font-family="Times,serif" font-size="14.00">CompraBoletosComponent</text>
</g>
<!-- CompraBoletosComponent&#45;&gt;AppModule -->
<g id="edge6" class="edge">
<title>CompraBoletosComponent&#45;&gt;AppModule</title>
<path fill="none" stroke="black" d="M2872,-84.82C2872,-102.17 2872,-125.8 2872,-125.8 2872,-125.8 2175.82,-125.8 2175.82,-125.8"/>
<polygon fill="black" stroke="black" points="2175.82,-122.3 2165.82,-125.8 2175.82,-129.3 2175.82,-122.3"/>
</g>
<!-- ComprasPreviasComponent -->
<g id="node7" class="node">
<title>ComprasPreviasComponent</title>
<polygon fill="#ffffb3" stroke="black" points="2769.6,-84.8 2596.4,-84.8 2596.4,-48.8 2769.6,-48.8 2769.6,-84.8"/>
<text text-anchor="middle" x="2683" y="-62.6" font-family="Times,serif" font-size="14.00">ComprasPreviasComponent</text>
</g>
<!-- ComprasPreviasComponent&#45;&gt;AppModule -->
<g id="edge7" class="edge">
<title>ComprasPreviasComponent&#45;&gt;AppModule</title>
<path fill="none" stroke="black" d="M2683,-84.83C2683,-101.2 2683,-122.8 2683,-122.8 2683,-122.8 2176.02,-122.8 2176.02,-122.8"/>
<polygon fill="black" stroke="black" points="2176.02,-119.3 2166.02,-122.8 2176.02,-126.3 2176.02,-119.3"/>
</g>
<!-- CrearRolesComponent -->
<g id="node8" class="node">
<title>CrearRolesComponent</title>
<polygon fill="#ffffb3" stroke="black" points="2578.31,-84.8 2433.69,-84.8 2433.69,-48.8 2578.31,-48.8 2578.31,-84.8"/>
<text text-anchor="middle" x="2506" y="-62.6" font-family="Times,serif" font-size="14.00">CrearRolesComponent</text>
</g>
<!-- CrearRolesComponent&#45;&gt;AppModule -->
<g id="edge8" class="edge">
<title>CrearRolesComponent&#45;&gt;AppModule</title>
<path fill="none" stroke="black" d="M2506,-85.04C2506,-100.37 2506,-119.8 2506,-119.8 2506,-119.8 2175.97,-119.8 2175.97,-119.8"/>
<polygon fill="black" stroke="black" points="2175.97,-116.3 2165.97,-119.8 2175.97,-123.3 2175.97,-116.3"/>
</g>
<!-- FuncionesComponent -->
<g id="node9" class="node">
<title>FuncionesComponent</title>
<polygon fill="#ffffb3" stroke="black" points="2415.38,-84.8 2276.62,-84.8 2276.62,-48.8 2415.38,-48.8 2415.38,-84.8"/>
<text text-anchor="middle" x="2346" y="-62.6" font-family="Times,serif" font-size="14.00">FuncionesComponent</text>
</g>
<!-- FuncionesComponent&#45;&gt;AppModule -->
<g id="edge9" class="edge">
<title>FuncionesComponent&#45;&gt;AppModule</title>
<path fill="none" stroke="black" d="M2346,-84.85C2346,-99.17 2346,-116.8 2346,-116.8 2346,-116.8 2175.76,-116.8 2175.76,-116.8"/>
<polygon fill="black" stroke="black" points="2175.76,-113.3 2165.76,-116.8 2175.76,-120.3 2175.76,-113.3"/>
</g>
<!-- HomeComponent -->
<g id="node10" class="node">
<title>HomeComponent</title>
<polygon fill="#ffffb3" stroke="black" points="2258.55,-84.8 2143.45,-84.8 2143.45,-48.8 2258.55,-48.8 2258.55,-84.8"/>
<text text-anchor="middle" x="2201" y="-62.6" font-family="Times,serif" font-size="14.00">HomeComponent</text>
</g>
<!-- HomeComponent&#45;&gt;AppModule -->
<g id="edge10" class="edge">
<title>HomeComponent&#45;&gt;AppModule</title>
<path fill="none" stroke="black" d="M2154.53,-84.91C2154.53,-84.91 2154.53,-103.79 2154.53,-103.79"/>
<polygon fill="black" stroke="black" points="2151.03,-103.79 2154.53,-113.79 2158.03,-103.79 2151.03,-103.79"/>
</g>
<!-- HomeLayoutComponent -->
<g id="node11" class="node">
<title>HomeLayoutComponent</title>
<polygon fill="#ffffb3" stroke="black" points="2125.7,-84.8 1970.3,-84.8 1970.3,-48.8 2125.7,-48.8 2125.7,-84.8"/>
<text text-anchor="middle" x="2048" y="-62.6" font-family="Times,serif" font-size="14.00">HomeLayoutComponent</text>
</g>
<!-- HomeLayoutComponent&#45;&gt;AppModule -->
<g id="edge11" class="edge">
<title>HomeLayoutComponent&#45;&gt;AppModule</title>
<path fill="none" stroke="black" d="M2103.88,-84.91C2103.88,-84.91 2103.88,-103.79 2103.88,-103.79"/>
<polygon fill="black" stroke="black" points="2100.38,-103.79 2103.88,-113.79 2107.38,-103.79 2100.38,-103.79"/>
</g>
<!-- ImagenesPeliculaComponent -->
<g id="node12" class="node">
<title>ImagenesPeliculaComponent</title>
<polygon fill="#ffffb3" stroke="black" points="1952.07,-84.8 1771.93,-84.8 1771.93,-48.8 1952.07,-48.8 1952.07,-84.8"/>
<text text-anchor="middle" x="1862" y="-62.6" font-family="Times,serif" font-size="14.00">ImagenesPeliculaComponent</text>
</g>
<!-- ImagenesPeliculaComponent&#45;&gt;AppModule -->
<g id="edge12" class="edge">
<title>ImagenesPeliculaComponent&#45;&gt;AppModule</title>
<path fill="none" stroke="black" d="M1862,-84.85C1862,-99.17 1862,-116.8 1862,-116.8 1862,-116.8 2072.2,-116.8 2072.2,-116.8"/>
<polygon fill="black" stroke="black" points="2072.2,-120.3 2082.2,-116.8 2072.2,-113.3 2072.2,-120.3"/>
</g>
<!-- LectorcodigoQrComponent -->
<g id="node13" class="node">
<title>LectorcodigoQrComponent</title>
<polygon fill="#ffffb3" stroke="black" points="1754.24,-84.8 1583.76,-84.8 1583.76,-48.8 1754.24,-48.8 1754.24,-84.8"/>
<text text-anchor="middle" x="1669" y="-62.6" font-family="Times,serif" font-size="14.00">LectorcodigoQrComponent</text>
</g>
<!-- LectorcodigoQrComponent&#45;&gt;AppModule -->
<g id="edge13" class="edge">
<title>LectorcodigoQrComponent&#45;&gt;AppModule</title>
<path fill="none" stroke="black" d="M1669,-85.04C1669,-100.37 1669,-119.8 1669,-119.8 1669,-119.8 2072.01,-119.8 2072.01,-119.8"/>
<polygon fill="black" stroke="black" points="2072.01,-123.3 2082.01,-119.8 2072.01,-116.3 2072.01,-123.3"/>
</g>
<!-- LoginComponent -->
<g id="node14" class="node">
<title>LoginComponent</title>
<polygon fill="#ffffb3" stroke="black" points="1565.27,-84.8 1450.73,-84.8 1450.73,-48.8 1565.27,-48.8 1565.27,-84.8"/>
<text text-anchor="middle" x="1508" y="-62.6" font-family="Times,serif" font-size="14.00">LoginComponent</text>
</g>
<!-- LoginComponent&#45;&gt;AppModule -->
<g id="edge14" class="edge">
<title>LoginComponent&#45;&gt;AppModule</title>
<path fill="none" stroke="black" d="M1508,-84.83C1508,-101.2 1508,-122.8 1508,-122.8 1508,-122.8 2072.14,-122.8 2072.14,-122.8"/>
<polygon fill="black" stroke="black" points="2072.14,-126.3 2082.14,-122.8 2072.14,-119.3 2072.14,-126.3"/>
</g>
<!-- PDFViewerComponent -->
<g id="node15" class="node">
<title>PDFViewerComponent</title>
<polygon fill="#ffffb3" stroke="black" points="1433.21,-84.8 1284.79,-84.8 1284.79,-48.8 1433.21,-48.8 1433.21,-84.8"/>
<text text-anchor="middle" x="1359" y="-62.6" font-family="Times,serif" font-size="14.00">PDFViewerComponent</text>
</g>
<!-- PDFViewerComponent&#45;&gt;AppModule -->
<g id="edge15" class="edge">
<title>PDFViewerComponent&#45;&gt;AppModule</title>
<path fill="none" stroke="black" d="M1359,-84.82C1359,-102.17 1359,-125.8 1359,-125.8 1359,-125.8 2072.33,-125.8 2072.33,-125.8"/>
<polygon fill="black" stroke="black" points="2072.33,-129.3 2082.33,-125.8 2072.33,-122.3 2072.33,-129.3"/>
</g>
<!-- PeliculaComponent -->
<g id="node16" class="node">
<title>PeliculaComponent</title>
<polygon fill="#ffffb3" stroke="black" points="1267.43,-84.8 1140.57,-84.8 1140.57,-48.8 1267.43,-48.8 1267.43,-84.8"/>
<text text-anchor="middle" x="1204" y="-62.6" font-family="Times,serif" font-size="14.00">PeliculaComponent</text>
</g>
<!-- PeliculaComponent&#45;&gt;AppModule -->
<g id="edge16" class="edge">
<title>PeliculaComponent&#45;&gt;AppModule</title>
<path fill="none" stroke="black" d="M1204,-85.1C1204,-103.07 1204,-127.8 1204,-127.8 1204,-127.8 2072.08,-127.8 2072.08,-127.8"/>
<polygon fill="black" stroke="black" points="2072.08,-131.3 2082.08,-127.8 2072.08,-124.3 2072.08,-131.3"/>
</g>
<!-- PeliculasComponent -->
<g id="node17" class="node">
<title>PeliculasComponent</title>
<polygon fill="#ffffb3" stroke="black" points="1122.88,-84.8 991.12,-84.8 991.12,-48.8 1122.88,-48.8 1122.88,-84.8"/>
<text text-anchor="middle" x="1057" y="-62.6" font-family="Times,serif" font-size="14.00">PeliculasComponent</text>
</g>
<!-- PeliculasComponent&#45;&gt;AppModule -->
<g id="edge17" class="edge">
<title>PeliculasComponent&#45;&gt;AppModule</title>
<path fill="none" stroke="black" d="M1057,-84.97C1057,-103.89 1057,-130.8 1057,-130.8 1057,-130.8 2072.17,-130.8 2072.17,-130.8"/>
<polygon fill="black" stroke="black" points="2072.17,-134.3 2082.17,-130.8 2072.17,-127.3 2072.17,-134.3"/>
</g>
<!-- RolesComponent -->
<g id="node18" class="node">
<title>RolesComponent</title>
<polygon fill="#ffffb3" stroke="black" points="972.72,-84.8 859.28,-84.8 859.28,-48.8 972.72,-48.8 972.72,-84.8"/>
<text text-anchor="middle" x="916" y="-62.6" font-family="Times,serif" font-size="14.00">RolesComponent</text>
</g>
<!-- RolesComponent&#45;&gt;AppModule -->
<g id="edge18" class="edge">
<title>RolesComponent&#45;&gt;AppModule</title>
<path fill="none" stroke="black" d="M916,-85.11C916,-104.95 916,-133.8 916,-133.8 916,-133.8 2072.07,-133.8 2072.07,-133.8"/>
<polygon fill="black" stroke="black" points="2072.07,-137.3 2082.07,-133.8 2072.07,-130.3 2072.07,-137.3"/>
</g>
<!-- RolesUsuarioComponent -->
<g id="node19" class="node">
<title>RolesUsuarioComponent</title>
<polygon fill="#ffffb3" stroke="black" points="841.55,-84.8 684.45,-84.8 684.45,-48.8 841.55,-48.8 841.55,-84.8"/>
<text text-anchor="middle" x="763" y="-62.6" font-family="Times,serif" font-size="14.00">RolesUsuarioComponent</text>
</g>
<!-- RolesUsuarioComponent&#45;&gt;AppModule -->
<g id="edge19" class="edge">
<title>RolesUsuarioComponent&#45;&gt;AppModule</title>
<path fill="none" stroke="black" d="M763,-84.83C763,-105.57 763,-136.8 763,-136.8 763,-136.8 2072.15,-136.8 2072.15,-136.8"/>
<polygon fill="black" stroke="black" points="2072.15,-140.3 2082.15,-136.8 2072.15,-133.3 2072.15,-140.3"/>
</g>
<!-- SalasComponent -->
<g id="node20" class="node">
<title>SalasComponent</title>
<polygon fill="#ffffb3" stroke="black" points="666.38,-84.8 555.62,-84.8 555.62,-48.8 666.38,-48.8 666.38,-84.8"/>
<text text-anchor="middle" x="611" y="-62.6" font-family="Times,serif" font-size="14.00">SalasComponent</text>
</g>
<!-- SalasComponent&#45;&gt;AppModule -->
<g id="edge20" class="edge">
<title>SalasComponent&#45;&gt;AppModule</title>
<path fill="none" stroke="black" d="M611,-84.97C611,-106.3 611,-138.8 611,-138.8 611,-138.8 2071.95,-138.8 2071.95,-138.8"/>
<polygon fill="black" stroke="black" points="2071.95,-142.3 2081.95,-138.8 2071.95,-135.3 2071.95,-142.3"/>
</g>
<!-- SucursalesComponent -->
<g id="node21" class="node">
<title>SucursalesComponent</title>
<polygon fill="#ffffb3" stroke="black" points="537.71,-84.8 396.29,-84.8 396.29,-48.8 537.71,-48.8 537.71,-84.8"/>
<text text-anchor="middle" x="467" y="-62.6" font-family="Times,serif" font-size="14.00">SucursalesComponent</text>
</g>
<!-- SucursalesComponent&#45;&gt;AppModule -->
<g id="edge21" class="edge">
<title>SucursalesComponent&#45;&gt;AppModule</title>
<path fill="none" stroke="black" d="M467,-84.96C467,-107.15 467,-141.8 467,-141.8 467,-141.8 2072.21,-141.8 2072.21,-141.8"/>
<polygon fill="black" stroke="black" points="2072.21,-145.3 2082.21,-141.8 2072.21,-138.3 2072.21,-145.3"/>
</g>
<!-- ValidacionDeBoletosComponent -->
<g id="node22" class="node">
<title>ValidacionDeBoletosComponent</title>
<polygon fill="#ffffb3" stroke="black" points="377.86,-84.8 176.14,-84.8 176.14,-48.8 377.86,-48.8 377.86,-84.8"/>
<text text-anchor="middle" x="277" y="-62.6" font-family="Times,serif" font-size="14.00">ValidacionDeBoletosComponent</text>
</g>
<!-- ValidacionDeBoletosComponent&#45;&gt;AppModule -->
<g id="edge22" class="edge">
<title>ValidacionDeBoletosComponent&#45;&gt;AppModule</title>
<path fill="none" stroke="black" d="M277,-84.89C277,-107.93 277,-144.8 277,-144.8 277,-144.8 2071.95,-144.8 2071.95,-144.8"/>
<polygon fill="black" stroke="black" points="2071.95,-148.3 2081.95,-144.8 2071.95,-141.3 2071.95,-148.3"/>
</g>
<!-- VistaSalaComponent -->
<g id="node23" class="node">
<title>VistaSalaComponent</title>
<polygon fill="#ffffb3" stroke="black" points="158.49,-84.8 23.51,-84.8 23.51,-48.8 158.49,-48.8 158.49,-84.8"/>
<text text-anchor="middle" x="91" y="-62.6" font-family="Times,serif" font-size="14.00">VistaSalaComponent</text>
</g>
<!-- VistaSalaComponent&#45;&gt;AppModule -->
<g id="edge23" class="edge">
<title>VistaSalaComponent&#45;&gt;AppModule</title>
<path fill="none" stroke="black" d="M91,-85.18C91,-109.08 91,-147.8 91,-147.8 91,-147.8 2072,-147.8 2072,-147.8"/>
<polygon fill="black" stroke="black" points="2072,-151.3 2082,-147.8 2072,-144.3 2072,-151.3"/>
</g>
<!-- AppComponent  -->
<g id="node26" class="node">
<title>AppComponent </title>
<polygon fill="#80b1d3" stroke="black" points="2178.44,-214.8 2069.56,-214.8 2069.56,-178.8 2178.44,-178.8 2178.44,-214.8"/>
<text text-anchor="middle" x="2124" y="-192.6" font-family="Times,serif" font-size="14.00">AppComponent </text>
</g>
<!-- AppModule&#45;&gt;AppComponent  -->
<g id="edge25" class="edge">
<title>AppModule&#45;&gt;AppComponent </title>
<path fill="none" stroke="black" stroke-dasharray="1,5" d="M2124,-149.91C2124,-149.91 2124,-168.79 2124,-168.79"/>
<polygon fill="black" stroke="black" points="2120.5,-168.79 2124,-178.79 2127.5,-168.79 2120.5,-168.79"/>
</g>
<!-- AppRoutingModule -->
<g id="node25" class="node">
<title>AppRoutingModule</title>
<polygon fill="#8dd3c7" stroke="black" points="3861.28,-84.8 3858.28,-88.8 3837.28,-88.8 3834.28,-84.8 3732.72,-84.8 3732.72,-48.8 3861.28,-48.8 3861.28,-84.8"/>
<text text-anchor="middle" x="3797" y="-62.6" font-family="Times,serif" font-size="14.00">AppRoutingModule</text>
</g>
<!-- AppRoutingModule&#45;&gt;AppModule -->
<g id="edge24" class="edge">
<title>AppRoutingModule&#45;&gt;AppModule</title>
<path fill="none" stroke="black" d="M3797,-84.96C3797,-107.15 3797,-141.8 3797,-141.8 3797,-141.8 2175.77,-141.8 2175.77,-141.8"/>
<polygon fill="black" stroke="black" points="2175.77,-138.3 2165.77,-141.8 2175.77,-145.3 2175.77,-138.3"/>
</g>
<!-- ErrorInterceptor -->
<g id="node27" class="node">
<title>ErrorInterceptor</title>
<ellipse fill="#fdb462" stroke="black" cx="4111" cy="-66.8" rx="73.54" ry="18"/>
<text text-anchor="middle" x="4111" y="-62.6" font-family="Times,serif" font-size="14.00">ErrorInterceptor</text>
</g>
<!-- ErrorInterceptor&#45;&gt;AppModule -->
<g id="edge26" class="edge">
<title>ErrorInterceptor&#45;&gt;AppModule</title>
<path fill="none" stroke="black" d="M4111,-85.18C4111,-109.08 4111,-147.8 4111,-147.8 4111,-147.8 2175.96,-147.8 2175.96,-147.8"/>
<polygon fill="black" stroke="black" points="2175.96,-144.3 2165.96,-147.8 2175.96,-151.3 2175.96,-144.3"/>
</g>
<!-- JwtInterceptor -->
<g id="node28" class="node">
<title>JwtInterceptor</title>
<ellipse fill="#fdb462" stroke="black" cx="3952" cy="-66.8" rx="66.62" ry="18"/>
<text text-anchor="middle" x="3952" y="-62.6" font-family="Times,serif" font-size="14.00">JwtInterceptor</text>
</g>
<!-- JwtInterceptor&#45;&gt;AppModule -->
<g id="edge27" class="edge">
<title>JwtInterceptor&#45;&gt;AppModule</title>
<path fill="none" stroke="black" d="M3952,-84.89C3952,-107.93 3952,-144.8 3952,-144.8 3952,-144.8 2176.05,-144.8 2176.05,-144.8"/>
<polygon fill="black" stroke="black" points="2176.05,-141.3 2166.05,-144.8 2176.05,-148.3 2176.05,-141.3"/>
</g>
</g>
</svg>
